<svg width="101" height="54" viewBox="0 0 101 54" fill="none" xmlns="http://www.w3.org/2000/svg">
<ellipse cx="25" cy="24" rx="25" ry="24" fill="#1E1E1E"/>
<ellipse cx="66" cy="30" rx="25" ry="24" fill="white"/>
<g filter="url(#filter0_d_19_18)">
<path d="M27.66 31.2C25.8467 31.2 24.4133 30.7 23.36 29.7C22.32 28.6867 21.8 27.1333 21.8 25.04C21.8 23.8133 22.0333 22.7333 22.5 21.8C22.9667 20.8533 23.7067 20.12 24.72 19.6C25.7333 19.0667 27.0467 18.8 28.66 18.8C29.9267 18.8 30.9733 18.8667 31.8 19C32.64 19.1333 33.2133 19.2667 33.52 19.4V20L33.92 22.2C33.56 21.9333 32.9267 21.6667 32.02 21.4C31.1133 21.1333 30.0067 21 28.7 21C27.8067 21 27.0733 21.1533 26.5 21.46C25.9267 21.7533 25.5067 22.2 25.24 22.8C24.9733 23.4 24.84 24.1467 24.84 25.04C24.84 26 24.96 26.7733 25.2 27.36C25.44 27.9333 25.8267 28.3467 26.36 28.6C26.8933 28.8533 27.6 28.98 28.48 28.98C29.1467 28.98 29.6867 28.9133 30.1 28.78C30.5133 28.6333 30.82 28.44 31.02 28.2C31.22 27.9467 31.32 27.6667 31.32 27.36V27.04C31.32 26.7333 31.2933 26.56 31.24 26.52C31.2 26.4667 31.0267 26.44 30.72 26.44H30.08C29.6267 26.44 29.24 26.4867 28.92 26.58C28.6 26.6733 28.3733 26.7667 28.24 26.86L28.44 24.88V24.28H34.74C34.6467 24.2933 34.5533 24.3933 34.46 24.58C34.38 24.7533 34.34 25.0533 34.34 25.48V29.8C34.34 30.2267 34.38 30.5333 34.46 30.72C34.5533 30.9067 34.6467 31 34.74 31H31.32V30.74L31.36 30.18L31.32 30.14C31.2267 30.2733 31.04 30.4267 30.76 30.6C30.48 30.76 30.0867 30.9 29.58 31.02C29.0867 31.14 28.4467 31.2 27.66 31.2ZM80.8063 31.2C79.6196 31.2 78.6196 31.1333 77.8063 31C76.9929 30.8667 76.4329 30.7333 76.1263 30.6V30L75.7063 28.04C76.0529 28.2933 76.6996 28.5467 77.6463 28.8C78.5929 29.0533 79.7529 29.18 81.1263 29.18C81.5396 29.18 81.8663 29.1533 82.1063 29.1C82.3596 29.0467 82.5396 28.96 82.6463 28.84C82.7529 28.72 82.8063 28.5667 82.8063 28.38C82.8063 28.1533 82.7196 27.98 82.5463 27.86C82.3863 27.74 82.0929 27.6467 81.6663 27.58C81.2396 27.5 80.6196 27.4067 79.8063 27.3C78.7796 27.1667 77.9663 26.98 77.3663 26.74C76.7663 26.4867 76.3396 26.1667 76.0863 25.78C75.8463 25.38 75.7263 24.8933 75.7263 24.32C75.7263 23.7867 75.8529 23.3067 76.1063 22.88C76.3729 22.44 76.8263 22.0933 77.4663 21.84C78.1196 21.5733 79.0263 21.44 80.1862 21.44C81.2796 21.44 82.2396 21.5067 83.0663 21.64C83.8929 21.7733 84.4863 21.9067 84.8463 22.04V22.64L85.2463 24.4C84.9396 24.2 84.3396 23.9933 83.4463 23.78C82.5529 23.5667 81.4196 23.46 80.0462 23.46C79.5129 23.46 79.1329 23.5133 78.9063 23.62C78.6796 23.7267 78.5663 23.9133 78.5663 24.18C78.5663 24.3133 78.5996 24.4267 78.6663 24.52C78.7463 24.6133 78.8929 24.7 79.1063 24.78C79.3196 24.86 79.6263 24.94 80.0263 25.02C80.4263 25.0867 80.9529 25.16 81.6063 25.24C82.7396 25.3867 83.5929 25.5933 84.1663 25.86C84.7396 26.1133 85.1263 26.4333 85.3263 26.82C85.5263 27.1933 85.6263 27.6467 85.6263 28.18C85.6263 28.86 85.4529 29.4267 85.1063 29.88C84.7729 30.32 84.2463 30.6533 83.5263 30.88C82.8196 31.0933 81.9129 31.2 80.8063 31.2ZM92.0953 31.2C90.9086 31.2 89.9086 31.1333 89.0953 31C88.282 30.8667 87.722 30.7333 87.4153 30.6V30L86.9953 28.04C87.342 28.2933 87.9886 28.5467 88.9353 28.8C89.882 29.0533 91.042 29.18 92.4153 29.18C92.8286 29.18 93.1553 29.1533 93.3953 29.1C93.6486 29.0467 93.8286 28.96 93.9353 28.84C94.042 28.72 94.0953 28.5667 94.0953 28.38C94.0953 28.1533 94.0086 27.98 93.8353 27.86C93.6753 27.74 93.382 27.6467 92.9553 27.58C92.5286 27.5 91.9086 27.4067 91.0953 27.3C90.0686 27.1667 89.2553 26.98 88.6553 26.74C88.0553 26.4867 87.6286 26.1667 87.3753 25.78C87.1353 25.38 87.0153 24.8933 87.0153 24.32C87.0153 23.7867 87.142 23.3067 87.3953 22.88C87.662 22.44 88.1153 22.0933 88.7553 21.84C89.4086 21.5733 90.3153 21.44 91.4753 21.44C92.5686 21.44 93.5286 21.5067 94.3553 21.64C95.182 21.7733 95.7753 21.9067 96.1353 22.04V22.64L96.5353 24.4C96.2286 24.2 95.6286 23.9933 94.7353 23.78C93.842 23.5667 92.7086 23.46 91.3353 23.46C90.802 23.46 90.422 23.5133 90.1953 23.62C89.9686 23.7267 89.8553 23.9133 89.8553 24.18C89.8553 24.3133 89.8886 24.4267 89.9553 24.52C90.0353 24.6133 90.182 24.7 90.3953 24.78C90.6086 24.86 90.9153 24.94 91.3153 25.02C91.7153 25.0867 92.242 25.16 92.8953 25.24C94.0286 25.3867 94.882 25.5933 95.4553 25.86C96.0286 26.1133 96.4153 26.4333 96.6153 26.82C96.8153 27.1933 96.9153 27.6467 96.9153 28.18C96.9153 28.86 96.742 29.4267 96.3953 29.88C96.062 30.32 95.5353 30.6533 94.8153 30.88C94.1086 31.0933 93.202 31.2 92.0953 31.2Z" fill="#3155E7"/>
<path d="M36.3461 27.4C36.4394 27.08 36.5261 26.7 36.6061 26.26C36.6994 25.8067 36.7461 25.4533 36.7461 25.2H40.6661C41.3461 25.2 41.8394 25.18 42.1461 25.14C42.4661 25.0867 42.6394 25.04 42.6661 25C42.5728 25.2133 42.4794 25.5267 42.3861 25.94C42.3061 26.3533 42.2661 26.7733 42.2661 27.2H38.7461C38.0128 27.2 37.4528 27.2267 37.0661 27.28C36.6794 27.32 36.4394 27.36 36.3461 27.4Z" fill="#D3D4DB"/>
<path d="M50.9256 31.2C48.6323 31.2 46.9123 30.7067 45.7656 29.72C44.6323 28.72 44.0656 27.1467 44.0656 25C44.0656 23.76 44.299 22.68 44.7656 21.76C45.2323 20.8267 45.9723 20.1 46.9856 19.58C47.999 19.06 49.3123 18.8 50.9256 18.8C52.1923 18.8 53.2456 18.8667 54.0856 19C54.9256 19.1333 55.4923 19.2667 55.7856 19.4V20L56.1856 22.2C55.9323 22.0267 55.5523 21.8467 55.0456 21.66C54.5523 21.4733 53.959 21.32 53.2656 21.2C52.5723 21.0667 51.8056 21 50.9656 21C50.0456 21 49.299 21.1467 48.7256 21.44C48.1656 21.7333 47.7523 22.18 47.4856 22.78C47.2323 23.3667 47.1056 24.1067 47.1056 25C47.1056 25.8933 47.2323 26.6333 47.4856 27.22C47.7523 27.8067 48.2056 28.2467 48.8456 28.54C49.499 28.8333 50.399 28.98 51.5456 28.98C52.6923 28.98 53.6456 28.82 54.4056 28.5C55.179 28.18 55.7056 27.8733 55.9856 27.58V28.18L56.1856 30.2C55.959 30.4133 55.4056 30.6333 54.5256 30.86C53.659 31.0867 52.459 31.2 50.9256 31.2ZM57.9766 31C58.0699 31 58.1632 30.9067 58.2566 30.72C58.3499 30.5333 58.3966 30.2267 58.3966 29.8V18.4C58.3966 17.9733 58.3499 17.6667 58.2566 17.48C58.1766 17.2933 58.0899 17.2 57.9966 17.2C58.8766 17.2 59.5899 17.16 60.1366 17.08C60.6966 16.9867 61.0632 16.8933 61.2366 16.8V29.8C61.2366 30.2267 61.2766 30.5333 61.3566 30.72C61.4499 30.9067 61.5432 31 61.6366 31H57.9766ZM67.3806 31.2C66.1806 31.2 65.2206 30.9667 64.5006 30.5C63.794 30.02 63.4406 29.2533 63.4406 28.2C63.4406 27.4667 63.6273 26.8733 64.0006 26.42C64.374 25.9667 64.8806 25.6333 65.5206 25.42C66.174 25.1933 66.914 25.08 67.7406 25.08C68.354 25.08 68.874 25.1333 69.3006 25.24C69.7406 25.3467 70.094 25.46 70.3606 25.58C70.6273 25.7 70.8006 25.7867 70.8806 25.84C70.8806 25.28 70.8206 24.8267 70.7006 24.48C70.5806 24.12 70.3606 23.86 70.0406 23.7C69.734 23.5267 69.3006 23.44 68.7406 23.44C67.9273 23.44 67.2073 23.52 66.5806 23.68C65.954 23.84 65.4406 24.0267 65.0406 24.24C64.654 24.4533 64.3873 24.6333 64.2406 24.78V24.18L64.0406 22.22C64.134 22.1667 64.3806 22.08 64.7806 21.96C65.1806 21.84 65.7273 21.7267 66.4206 21.62C67.114 21.5 67.9406 21.44 68.9006 21.44C70.2206 21.44 71.2273 21.6333 71.9206 22.02C72.614 22.3933 73.0873 22.9333 73.3406 23.64C73.6073 24.3467 73.7406 25.2 73.7406 26.2V29.8C73.7406 30.1733 73.7806 30.4467 73.8606 30.62C73.954 30.78 74.0473 30.9067 74.1406 31H70.9006V30.58L70.9406 30.2L70.9006 30.16C70.794 30.28 70.6406 30.4 70.4406 30.52C70.2406 30.64 69.994 30.7533 69.7006 30.86C69.4073 30.9533 69.0673 31.0333 68.6806 31.1C68.294 31.1667 67.8606 31.2 67.3806 31.2ZM68.3206 29.18C68.8806 29.18 69.3473 29.14 69.7206 29.06C70.1073 28.9667 70.4006 28.8467 70.6006 28.7C70.8006 28.54 70.9006 28.3533 70.9006 28.14C70.9006 27.8333 70.6673 27.58 70.2006 27.38C69.7473 27.18 69.1273 27.08 68.3406 27.08C67.5806 27.08 67.0406 27.1867 66.7206 27.4C66.414 27.6133 66.2606 27.88 66.2606 28.2C66.2606 28.6 66.4406 28.8667 66.8006 29C67.1606 29.12 67.6673 29.18 68.3206 29.18Z" fill="black"/>
</g>
<defs>
<filter id="filter0_d_19_18" x="17.8" y="16.8" width="83.1153" height="22.4" filterUnits="userSpaceOnUse" color-interpolation-filters="sRGB">
<feFlood flood-opacity="0" result="BackgroundImageFix"/>
<feColorMatrix in="SourceAlpha" type="matrix" values="0 0 0 0 0 0 0 0 0 0 0 0 0 0 0 0 0 0 127 0" result="hardAlpha"/>
<feOffset dy="4"/>
<feGaussianBlur stdDeviation="2"/>
<feComposite in2="hardAlpha" operator="out"/>
<feColorMatrix type="matrix" values="0 0 0 0 0 0 0 0 0 0 0 0 0 0 0 0 0 0 0.25 0"/>
<feBlend mode="normal" in2="BackgroundImageFix" result="effect1_dropShadow_19_18"/>
<feBlend mode="normal" in="SourceGraphic" in2="effect1_dropShadow_19_18" result="shape"/>
</filter>
</defs>
</svg>
